# xmcd CD Database Entry
#
# Track frame offsets:
# 150
# 18435
# 33500
# 53939
# 73761
# 92740
# 112043
# 132723
# 151123
# 169033
# 188132
# 206690
# 224750
# 232148
#
# Disc length: 3340 seconds
#
# Revision: 1
# Processed by: cddbd v1.4PL0 Copyright (c) Steve Scherf et al.
# Submitted via: tcd 2.0b
#
DISCID=d40d0a0e
DTITLE=Desconocido - Desconocido
DYEAR=1900
DGENRE=
TTITLE0=Pista 1
TTITLE1=Pista 2
TTITLE2=Pista 3
TTITLE3=Pista 4
TTITLE4=Pista 5
TTITLE5=Pista 6
TTITLE6=Pista 7
TTITLE7=Pista 8
TTITLE8=Pista 9
TTITLE9=Pista 10
TTITLE10=Pista 11
TTITLE11=Pista 12
TTITLE12=Pista 13
TTITLE13=Pista 14
EXTD=
EXTT0=
EXTT1=
EXTT2=
EXTT3=
EXTT4=
EXTT5=
EXTT6=
EXTT7=
EXTT8=
EXTT9=
EXTT10=
EXTT11=
EXTT12=
EXTT13=
PLAYORDER=
